<?xml version="1.0" encoding="iso-8859-1"?>
<!-- Uploaded to: SVG Repo, www.svgrepo.com, Generator: SVG Repo Mixer Tools -->
<svg height="800px" width="800px" version="1.1" id="Layer_1" xmlns="http://www.w3.org/2000/svg" xmlns:xlink="http://www.w3.org/1999/xlink" 
	 viewBox="0 0 512 512" xml:space="preserve">
<circle style="fill:#71E2EF;" cx="256" cy="256" r="256"/>
<path style="fill:#38C6D9;" d="M512,256c0-4.606-0.128-9.182-0.369-13.726l-87.33-87.33l-77.115,4.294l-68.03,68.03v5.916
	l-4.479-4.479L85.83,366.489l144.208,144.208C238.575,511.557,247.236,512,256,512C397.384,512,512,397.384,512,256z"/>
<path style="fill:#272525;" d="M318.528,361.203h-42.306c-3.808,0-6.896-3.088-6.896-6.896v-42.308c0-3.808,3.088-6.896,6.896-6.896
	s6.896,3.088,6.896,6.896v35.412h35.412c3.808,0,6.896,3.088,6.896,6.896S322.336,361.203,318.528,361.203z"/>
<path style="fill:#59595B;" d="M360.838,154.943c0,0,34.19-14.531,63.464,0l-63.464,21.154V154.943z"/>
<g>
	<path style="fill:#272525;" d="M313.401,170.329c0,17.703,8.582,48.078,26.283,48.078c17.701,0,37.823-30.377,37.823-48.078
		s-14.35-32.053-32.053-32.053S313.401,152.626,313.401,170.329z"/>
	<path style="fill:#272525;" d="M143.127,292.576c0,0-33.537,28.76-99.606,31.603l42.31,42.31l105.772-63.464L143.127,292.576z"/>
</g>
<path style="fill:#808183;" d="M339.684,176.099c-8.761-11.752-47.223-21.154-84.618,21.154S128.138,303.025,128.138,303.025
	s126.5,46.156,190.39,0S358.91,201.89,339.684,176.099z"/>
<path style="fill:#59595B;" d="M225.011,226.733c-41.8,37.254-96.871,76.291-96.871,76.291s113.442,41.379,179.728,6.565
	L225.011,226.733z"/>
<path style="fill:#272525;" d="M276.221,361.205c-2.813,0-5.454-1.734-6.477-4.53c-1.308-3.577,0.534-7.537,4.11-8.844
	l33.333-12.178c3.575-1.31,7.535,0.533,8.844,4.11c1.308,3.577-0.534,7.537-4.11,8.844l-33.333,12.178
	C277.806,361.07,277.008,361.205,276.221,361.205z"/>
</svg>